<?xml version="1.0" standalone="no"?><!DOCTYPE svg PUBLIC "-//W3C//DTD SVG 1.1//EN" "http://www.w3.org/Graphics/SVG/1.1/DTD/svg11.dtd"><svg t="1600780448460" class="icon" viewBox="0 0 1024 1024" version="1.1" xmlns="http://www.w3.org/2000/svg" p-id="1516" xmlns:xlink="http://www.w3.org/1999/xlink" width="200" height="200"><defs><style type="text/css"></style></defs><path d="M887.46496 670.72H136.53504c-19.712 0-35.84 16.128-35.84 35.84s16.128 35.84 35.84 35.84h750.93504c19.712 0 35.84-16.128 35.84-35.84-0.00512-19.712-16.13312-35.84-35.84512-35.84zM256 424.42752C256 283.56096 372.0192 168.96 514.63168 168.96h1.6896C657.92 168.96 773.12 283.56096 773.12512 424.68352L783.61088 634.88h71.69024L844.8 424.42752C844.8 244.03968 697.4464 97.28 516.32128 97.28h-1.6896C332.49792 97.28 184.32 244.03968 184.32512 424.17152L173.81888 634.88h71.69024L256 424.42752zM512 910.68416c62.60736 0 113.4848-50.52416 114.9184-111.96416h-229.8368c1.49504 61.44 52.352 111.96416 114.9184 111.96416z" p-id="1517"></path></svg>